REM DIRINDEX 1\2\6,1\2\7,1\2\8,1\2\9,1\3\10,1\3\11,1\4\12,1\4\13,1\4\14,1\5\15,1\5\16,1\5\17
REM DIRNAME folder01,folder02,folder03,folder04,folder05,folder06,folder07,folder08,folder09,folder10,folder11,folder12,folder13,folder14,folder15,folder16,folder17
TITLE ""
FILE "1900_2_sec08_0765_0781.mp3" MP3
  TRACK 01 AUDIO
    TITLE "0:"
    INDEX 01 00:00:00
  TRACK 02 AUDIO
    TITLE "13:cjc020_3646"
    INDEX 01 00:00:19
  TRACK 03 AUDIO
    TITLE "0:"
    INDEX 01 00:01:38
  TRACK 04 AUDIO
    TITLE "14:cjc020_3647"
    INDEX 01 00:01:42
  TRACK 05 AUDIO
    TITLE "0:"
    INDEX 01 00:04:44
  TRACK 06 AUDIO
    TITLE "13:cjc020_3648"
    INDEX 01 00:05:24
  TRACK 07 AUDIO
    TITLE "0:"
    INDEX 01 00:06:47
  TRACK 08 AUDIO
    TITLE "14:cjc020_3649"
    INDEX 01 00:06:51
  TRACK 09 AUDIO
    TITLE "0:"
    INDEX 01 00:07:52
  TRACK 10 AUDIO
    TITLE "13:cjc020_3650"
    INDEX 01 00:08:32
  TRACK 11 AUDIO
    TITLE "0:"
    INDEX 01 00:09:24
  TRACK 12 AUDIO
    TITLE "14:cjc020_3651"
    INDEX 01 00:09:42
  TRACK 13 AUDIO
    TITLE "0:"
    INDEX 01 00:11:48
  TRACK 14 AUDIO
    TITLE "13:cjc020_3652"
    INDEX 01 00:12:28
  TRACK 15 AUDIO
    TITLE "0:"
    INDEX 01 00:13:35
  TRACK 16 AUDIO
    TITLE "14:cjc020_3653"
    INDEX 01 00:13:41
  TRACK 17 AUDIO
    TITLE "0:"
    INDEX 01 00:15:52
  TRACK 18 AUDIO
    TITLE "13:cjc020_3654"
    INDEX 01 00:16:36
  TRACK 19 AUDIO
    TITLE "0:"
    INDEX 01 00:17:53
  TRACK 20 AUDIO
    TITLE "14:cjc020_3655"
    INDEX 01 00:17:55
  TRACK 21 AUDIO
    TITLE "0:"
    INDEX 01 00:18:62
  TRACK 22 AUDIO
    TITLE "13:cjc020_3656"
    INDEX 01 00:19:46
  TRACK 23 AUDIO
    TITLE "0:"
    INDEX 01 00:20:53
  TRACK 24 AUDIO
    TITLE "14:cjc020_3657"
    INDEX 01 00:20:55
  TRACK 25 AUDIO
    TITLE "0:"
    INDEX 01 00:21:64
  TRACK 26 AUDIO
    TITLE "13:cjc020_3658"
    INDEX 01 00:22:42
  TRACK 27 AUDIO
    TITLE "0:"
    INDEX 01 00:23:65
  TRACK 28 AUDIO
    TITLE "14:cjc020_3659"
    INDEX 01 00:23:67
  TRACK 29 AUDIO
    TITLE "0:"
    INDEX 01 00:27:08
  TRACK 30 AUDIO
    TITLE "13:cjc020_3660"
    INDEX 01 00:27:65
  TRACK 31 AUDIO
    TITLE "0:"
    INDEX 01 00:29:11
  TRACK 32 AUDIO
    TITLE "14:cjc020_3661"
    INDEX 01 00:29:13
  TRACK 33 AUDIO
    TITLE "0:"
    INDEX 01 00:30:55
  TRACK 34 AUDIO
    TITLE "13:cjc020_3662"
    INDEX 01 00:31:35
  TRACK 35 AUDIO
    TITLE "0:"
    INDEX 01 00:32:58
  TRACK 36 AUDIO
    TITLE "14:cjc020_3663"
    INDEX 01 00:32:68
  TRACK 37 AUDIO
    TITLE "0:"
    INDEX 01 00:35:47
  TRACK 38 AUDIO
    TITLE "13:cjc020_3664"
    INDEX 01 00:36:27
  TRACK 39 AUDIO
    TITLE "0:"
    INDEX 01 00:37:32
  TRACK 40 AUDIO
    TITLE "14:cjc020_3665"
    INDEX 01 00:37:36
  TRACK 41 AUDIO
    TITLE "0:"
    INDEX 01 00:41:22
  TRACK 42 AUDIO
    TITLE "13:cjc020_3666"
    INDEX 01 00:42:08
  TRACK 43 AUDIO
    TITLE "0:"
    INDEX 01 00:42:74
  TRACK 44 AUDIO
    TITLE "14:cjc020_3667"
    INDEX 01 00:43:07
  TRACK 45 AUDIO
    TITLE "0:"
    INDEX 01 00:45:04
  TRACK 46 AUDIO
    TITLE "13:cjc020_3668"
    INDEX 01 00:45:59
  TRACK 47 AUDIO
    TITLE "0:"
    INDEX 01 00:46:58
  TRACK 48 AUDIO
    TITLE "14:cjc020_3669"
    INDEX 01 00:46:60
  TRACK 49 AUDIO
    TITLE "0:"
    INDEX 01 00:50:46
  TRACK 50 AUDIO
    TITLE "13:cjc020_3670"
    INDEX 01 00:51:24
  TRACK 51 AUDIO
    TITLE "0:"
    INDEX 01 00:52:73
  TRACK 52 AUDIO
    TITLE "14:cjc020_3671"
    INDEX 01 00:53:00
  TRACK 53 AUDIO
    TITLE "0:"
    INDEX 01 00:54:11
  TRACK 54 AUDIO
    TITLE "12:cjc020_3672"
    INDEX 01 00:55:63
  TRACK 55 AUDIO
    TITLE "0:"
    INDEX 01 00:57:31
  TRACK 56 AUDIO
    TITLE "13:cjc020_3673"
    INDEX 01 00:58:38
  TRACK 57 AUDIO
    TITLE "0:"
    INDEX 01 00:59:39
  TRACK 58 AUDIO
    TITLE "14:cjc020_3674"
    INDEX 01 00:59:43
  TRACK 59 AUDIO
    TITLE "0:"
    INDEX 01 01:02:26
  TRACK 60 AUDIO
    TITLE "13:cjc020_3675"
    INDEX 01 01:03:08
  TRACK 61 AUDIO
    TITLE "0:"
    INDEX 01 01:04:23
  TRACK 62 AUDIO
    TITLE "14:cjc020_3676"
    INDEX 01 01:04:29
  TRACK 63 AUDIO
    TITLE "0:"
    INDEX 01 01:08:13
  TRACK 64 AUDIO
    TITLE "13:cjc020_3677"
    INDEX 01 01:08:70
  TRACK 65 AUDIO
    TITLE "0:"
    INDEX 01 01:10:14
  TRACK 66 AUDIO
    TITLE "14:cjc020_3678"
    INDEX 01 01:10:18
  TRACK 67 AUDIO
    TITLE "0:"
    INDEX 01 01:12:52
  TRACK 68 AUDIO
    TITLE "13:cjc020_3679"
    INDEX 01 01:13:36
  TRACK 69 AUDIO
    TITLE "0:"
    INDEX 01 01:14:43
  TRACK 70 AUDIO
    TITLE "14:cjc020_3680"
    INDEX 01 01:14:47
  TRACK 71 AUDIO
    TITLE "0:"
    INDEX 01 01:16:73
